<svg xmlns="http://www.w3.org/2000/svg" viewBox="0 0 1200 675" role="img" aria-label="Illustration of a commercial retail building with new concrete flatwork, sidewalks and parking in Houston">
  <rect width="1200" height="675" fill="#ECEAE4"/>
  <rect width="1200" height="300" fill="#7A8892"/>
  <rect x="150" y="80" width="620" height="260" fill="#3E4A52"/>
  <rect x="180" y="120" width="120" height="90" fill="#ECEAE4" opacity="0.75"/>
  <rect x="330" y="120" width="120" height="90" fill="#ECEAE4" opacity="0.75"/>
  <rect x="480" y="120" width="120" height="90" fill="#ECEAE4" opacity="0.75"/>
  <rect x="150" y="60" width="620" height="26" fill="#D64F1E"/>
  <rect x="620" y="240" width="90" height="100" fill="#23241F"/>
  <rect y="340" width="1200" height="335" fill="#D9D5CA"/>
  <polygon points="0,675 1200,675 1200,340 0,340" fill="#CFCABD"/>
  <line x1="200" y1="360" x2="120" y2="660" stroke="#B8B3A6" stroke-width="4"/>
  <line x1="500" y1="360" x2="470" y2="660" stroke="#B8B3A6" stroke-width="4"/>
  <line x1="800" y1="360" x2="830" y2="660" stroke="#B8B3A6" stroke-width="4"/>
  <g stroke="#F2B705" stroke-width="12">
    <line x1="920" y1="420" x2="880" y2="540"/>
    <line x1="1020" y1="420" x2="980" y2="540"/>
    <line x1="1120" y1="420" x2="1080" y2="540"/>
  </g>
  <rect x="0" y="655" width="1200" height="20" fill="#23241F"/>
</svg>
