<svg xmlns="http://www.w3.org/2000/svg" viewBox="0 0 1200 675" role="img" aria-label="Illustration of a signed legal document representing site privacy and terms">
  <rect width="1200" height="675" fill="#ECEAE4"/>
  <rect x="420" y="60" width="360" height="560" fill="#23241F" opacity="0.08"/>
  <rect x="400" y="40" width="360" height="560" fill="#FAF9F6" stroke="#23241F" stroke-width="4"/>
  <rect x="440" y="100" width="280" height="24" fill="#55636C"/>
  <line x1="440" y1="160" x2="720" y2="160" stroke="#B8B3A6" stroke-width="6"/>
  <line x1="440" y1="200" x2="720" y2="200" stroke="#B8B3A6" stroke-width="6"/>
  <line x1="440" y1="240" x2="680" y2="240" stroke="#B8B3A6" stroke-width="6"/>
  <line x1="440" y1="300" x2="720" y2="300" stroke="#B8B3A6" stroke-width="6"/>
  <line x1="440" y1="340" x2="720" y2="340" stroke="#B8B3A6" stroke-width="6"/>
  <line x1="440" y1="380" x2="640" y2="380" stroke="#B8B3A6" stroke-width="6"/>
  <line x1="440" y1="440" x2="720" y2="440" stroke="#B8B3A6" stroke-width="6"/>
  <line x1="440" y1="480" x2="700" y2="480" stroke="#B8B3A6" stroke-width="6"/>
  <path d="M460 540 q30 -30 60 0 t60 0" stroke="#D64F1E" stroke-width="8" fill="none"/>
  <g>
    <circle cx="820" cy="500" r="60" fill="#D64F1E"/>
    <circle cx="820" cy="500" r="60" fill="none" stroke="#B23F14" stroke-width="4" stroke-dasharray="6 5"/>
    <path d="M796 500 l16 16 32 -34" stroke="#FAF9F6" stroke-width="9" fill="none" stroke-linecap="round" stroke-linejoin="round"/>
  </g>
  <rect x="0" y="655" width="1200" height="20" fill="#23241F"/>
</svg>
