<svg xmlns="http://www.w3.org/2000/svg" viewBox="0 0 1200 675" role="img" aria-label="Illustration of an industrial warehouse with heavy-duty concrete slab and loading dock">
  <rect width="1200" height="675" fill="#ECEAE4"/>
  <rect width="1200" height="280" fill="#55636C"/>
  <polygon points="140,280 140,120 460,60 460,280" fill="#3E4A52"/>
  <polygon points="460,280 460,60 780,120 780,280" fill="#4A5860"/>
  <rect x="200" y="180" width="90" height="100" fill="#23241F"/>
  <rect x="330" y="180" width="90" height="100" fill="#23241F"/>
  <rect x="540" y="180" width="90" height="100" fill="#F2B705" opacity="0.85"/>
  <rect x="660" y="180" width="90" height="100" fill="#23241F"/>
  <rect x="140" y="110" width="640" height="16" fill="#D64F1E"/>
  <rect y="280" width="1200" height="395" fill="#CFCABD"/>
  <rect x="80" y="330" width="1040" height="300" fill="#D9D5CA" stroke="#23241F" stroke-width="4"/>
  <line x1="340" y1="330" x2="340" y2="630" stroke="#B8B3A6" stroke-width="3"/>
  <line x1="600" y1="330" x2="600" y2="630" stroke="#B8B3A6" stroke-width="3"/>
  <line x1="860" y1="330" x2="860" y2="630" stroke="#B8B3A6" stroke-width="3"/>
  <line x1="80" y1="480" x2="1120" y2="480" stroke="#B8B3A6" stroke-width="3"/>
  <g fill="#55636C">
    <circle cx="180" cy="380" r="6"/><circle cx="220" cy="380" r="6"/><circle cx="180" cy="420" r="6"/><circle cx="220" cy="420" r="6"/>
  </g>
  <rect x="0" y="655" width="1200" height="20" fill="#23241F"/>
</svg>
